<?xml version="1.0" encoding="UTF-8" standalone="no"?>
<!-- Created with Inkscape (http://www.inkscape.org/) -->

<svg
   version="1.1"
   id="svg1"
   width="301"
   height="500"
   viewBox="0 0 301 500"
   sodipodi:docname="logo-s.png"
   inkscape:version="0.0"
   xmlns:inkscape="http://www.inkscape.org/namespaces/inkscape"
   xmlns:sodipodi="http://sodipodi.sourceforge.net/DTD/sodipodi-0.dtd"
   xmlns="http://www.w3.org/2000/svg"
   xmlns:svg="http://www.w3.org/2000/svg">
  <defs
     id="defs1" />
  <sodipodi:namedview
     id="namedview1"
     pagecolor="#ffffff"
     bordercolor="#000000"
     borderopacity="0.25"
     inkscape:showpageshadow="2"
     inkscape:pageopacity="0.0"
     inkscape:pagecheckerboard="0"
     inkscape:deskcolor="#d1d1d1"
     inkscape:zoom="0.66914269"
     inkscape:cx="140.47826"
     inkscape:cy="271.2426"
     inkscape:window-width="1176"
     inkscape:window-height="640"
     inkscape:window-x="0"
     inkscape:window-y="25"
     inkscape:window-maximized="0"
     inkscape:current-layer="g1">
    <inkscape:page
       x="0"
       y="0"
       width="301"
       height="500"
       id="page2"
       margin="0"
       bleed="0" />
  </sodipodi:namedview>
  <g
     inkscape:groupmode="layer"
     inkscape:label="Image"
     id="g1">
    <path
       style="fill:#ffffff"
       d="m 32.5,497.48096 c -4.532695,-2.2765 -9.151225,-8.03877 -10.391687,-12.96509 -1.806562,-7.17451 -1.548305,-344.55064 0.267,-348.79799 2.280739,-5.33635 80.771227,-86.708481 86.781837,-89.96788 11.72375,-6.357493 29.68187,0.532435 33.99355,13.04219 1.6207,4.702236 1.54356,-3.175076 1.70894,174.51143 L 145,384.10724 211.75349,383.9372 c 74.68664,-0.19024 71.02313,-0.52093 77.45323,6.9912 5.74773,6.71494 7.08803,16.62136 3.26131,24.10509 -0.7125,1.39342 -12.87794,14.66842 -27.0343,29.5 -14.15635,14.83158 -30.73268,32.27534 -36.83628,38.76391 -6.1036,6.48857 -12.50057,12.67607 -14.21548,13.75 -4.27261,2.67563 -176.599927,3.08641 -181.88197,0.43356 z m 180.56616,-2.23912 c 2.51138,-1.50801 8.56036,-7.01684 13.44217,-12.24184 4.88181,-5.225 20.82704,-22.01169 35.43384,-37.30375 34.13965,-35.74126 36.67055,-40.95625 25.85483,-53.27467 -6.18395,-7.04314 -1.75668,-6.67013 -76.9552,-6.48372 L 143.02952,386.10595 142.76476,223.80297 142.5,61.5 140.25923,57.307932 C 134.65979,46.832404 120.72224,42.0515 110.37931,47.058424 c -5.49989,2.662454 -83.009208,83.175916 -85.646028,88.965546 -2.094356,4.59855 -2.75566,340.70912 -0.68508,348.19498 1.851713,6.69457 7.033845,11.46791 13.951798,12.8512 1.925,0.38492 41.075,0.74793 87,0.80669 l 83.5,0.10684 z M 68.026011,307.25 68.052022,153.5 83.776011,137.20766 c 8.648194,-8.96078 16.053993,-16.27328 16.457329,-16.25 0.40334,0.0233 0.85334,64.27984 1,142.79234 0.30303,162.21761 -0.5569,147.28189 8.75143,152 l 4.43901,2.25 h 57.68112 c 56.63939,0 64.24059,0.41687 58.08302,3.18539 -0.38486,0.17304 -9.18637,9.20211 -19.55893,20.06461 L 191.7698,461 H 129.8849 68 Z M 209.68909,439.74228 227.87817,420.5 169.64406,420 c -63.52223,-0.5454 -59.96802,-0.20761 -65.69523,-6.24366 -4.00447,-4.22041 -4.001836,-4.1213 -3.962414,-149.11692 0.03244,-119.31802 -0.177653,-141.85633 -1.310769,-140.61623 -0.742171,0.81225 -7.497807,7.86882 -15.012524,15.68128 L 70,153.90894 V 306.45447 459 l 60.75,-0.008 60.75,-0.008 z M 10.694057,99.265661 C 9.9520391,65.172066 8.5032485,67.589158 25.574398,74.440029 33.194349,77.498013 39.833994,80 40.329165,80 40.848571,80 41.066998,69.846067 40.84544,56 40.499692,34.39269 40.622787,32 42.080153,32 42.970464,32 50.854148,34.917161 59.59945,38.482581 68.344753,42.048 75.725,44.973344 76,44.983345 c 0.275,0.01 0.349461,-9.88216 0.165469,-21.982581 L 75.830938,1 h 2.92329 C 81.252491,1 119.12734,15.794003 120.72863,17.395301 121.7256,18.392264 14.392106,128 12.418866,128 11.659643,128 11.125919,119.10845 10.694057,99.265661 Z M 86.010515,51.342248 118.5,18.184496 99.055788,10.342248 C 88.361471,6.0290116 79.248971,2.35 78.805788,2.1666667 78.362605,1.9833333 78,11.995833 78,24.416667 78,43.770138 77.786617,47 76.508017,47 75.687427,47 67.842593,44.075 59.075053,40.5 50.307514,36.925 42.932537,34 42.686216,34 c -0.24632,0 -0.212006,10.733591 0.07625,23.852425 0.624987,28.443359 2.187169,26.583494 -16.128311,19.201646 L 12,71.155939 l 0.0028,8.17203 c 0.0016,4.494617 0.299387,16.657878 0.66185,27.029471 l 0.659026,18.85743 20.098663,-20.35743 C 44.476631,93.660847 68.141298,69.579012 86.010515,51.342248 Z"
       id="path1" />
  </g>
</svg>
